<svg width="800" height="400" xmlns="http://www.w3.org/2000/svg">
  <!-- Dynamic Connectors -->
  <line x1="400" y1="80" x2="400" y2="120" stroke="#cbd5e1" stroke-width="2" />
  <line x1="400" y1="180" x2="400" y2="220" stroke="#cbd5e1" stroke-width="2" />
  <line x1="400" y1="280" x2="250" y2="320" stroke="#cbd5e1" stroke-width="2" />
  <line x1="400" y1="280" x2="400" y2="320" stroke="#cbd5e1" stroke-width="2" />
  <line x1="400" y1="280" x2="550" y2="320" stroke="#cbd5e1" stroke-width="2" />
  <line x1="400" y1="380" x2="400" y2="420" stroke="#cbd5e1" stroke-width="2" />

  <!-- 1. Scheduler -->
  <rect x="250" y="20" width="300" height="60" rx="10" fill="white" stroke="#f97316" stroke-width="2" />
  <text x="280" y="45" font-family="sans-serif" font-size="14" font-weight="bold" fill="#1e293b">β° μλ™ μ¤μΌ€μ¤„λ¬ (GitHub Cron)</text>
  <text x="280" y="65" font-family="sans-serif" font-size="10" fill="#64748b">μ•”νΈν™”ν(4ν), ν™μ¨, κΈ, μ§€μ</text>

  <!-- 2. Orchestration -->
  <rect x="250" y="120" width="300" height="60" rx="10" fill="white" stroke="#3b82f6" stroke-width="2" />
  <text x="280" y="145" font-family="sans-serif" font-size="14" font-weight="bold" fill="#1e293b">π— GitHub Actions νμ΄ν”„λΌμΈ</text>
  <text x="280" y="165" font-family="sans-serif" font-size="10" fill="#64748b">Run ID: dynamic</text>

  <!-- 3. Data Collection -->
  <rect x="250" y="220" width="300" height="60" rx="10" fill="white" stroke="#10b981" stroke-width="2" />
  <text x="280" y="245" font-family="sans-serif" font-size="14" font-weight="bold" fill="#1e293b">π“¥ λ°μ΄ν„° μμ§‘ λ° μ •κ·ν™”</text>
  <text x="280" y="265" font-family="sans-serif" font-size="10" fill="#64748b">Raw API -> Curated CSV</text>

  <!-- 4. Core Engine -->
  <!-- 4a. Feature Builder -->
  <rect x="150" y="320" width="150" height="60" rx="8" fill="white" stroke="#db2777" stroke-width="2" />
  <text x="170" y="345" font-family="sans-serif" font-size="12" font-weight="bold" fill="#1e293b">π›  ν”Όμ² λΉλ”</text>
  
  <!-- 4b. Anomaly Detection -->
  <rect x="325" y="320" width="150" height="60" rx="8" fill="white" stroke="#db2777" stroke-width="2" />
  <text x="345" y="345" font-family="sans-serif" font-size="12" font-weight="bold" fill="#1e293b">π¨ μ΄μƒμΉ νƒμ§€</text>

  <!-- 4c. Topic Selection -->
  <rect x="500" y="320" width="150" height="60" rx="8" fill="white" stroke="#db2777" stroke-width="2" />
  <text x="520" y="345" font-family="sans-serif" font-size="12" font-weight="bold" fill="#1e293b">π― ν† ν”½ μ„ μ •</text>

  <!-- 5. Output -->
  <!-- <rect x="325" y="420" width="150" height="60" rx="8" fill="white" stroke="#8b5cf6" stroke-width="2" /> -->
  <!-- <text x="345" y="445" font-family="sans-serif" font-size="12" font-weight="bold" fill="#1e293b">π€ μ½ν…μΈ  μƒμ„±</text> -->

</svg>
